
<svg class="design_block_container_option_icon"  version="1.1" id="Capa_1" xmlns="http://www.w3.org/2000/svg" xmlns:xlink="http://www.w3.org/1999/xlink" x="0px" y="0px"
	 viewBox="0 0 293 271" style="enable-background:new 0 0 293 271;" xml:space="preserve">
<title>icono_subepdf0</title>
<path class="st0" d="M108.6,215.1H95.3c-8.3,0-15-6.7-15-15l0,0v-69.9c-0.1-1.8,1.3-3.4,3.2-3.5c1.8-0.1,3.4,1.3,3.5,3.2
	c0,0.1,0,0.2,0,0.4v69.9c0,4.6,3.7,8.3,8.3,8.3h13.2c1.8,0.1,3.3,1.7,3.2,3.5C111.6,213.6,110.2,215,108.6,215.1L108.6,215.1z"/>
<path class="st0" d="M222.2,77c0-0.1,0-0.1,0-0.2s0-0.1,0-0.2s0-0.1,0-0.2v-0.2v-0.2V76l-0.1-0.2l-0.1-0.2l-0.1-0.2l-0.1-0.2
	l-0.1-0.1l-0.1-0.1l-0.1-0.1l-0.1-0.1l-0.1-0.1L185.3,36l0,0l-0.1-0.1l-0.1-0.1l-0.1-0.1l-0.1-0.1l-0.1-0.1l-0.1-0.1l-0.1-0.1
	l-0.1-0.1l-0.1-0.1l-0.1,0h-0.2h-0.1h-0.2h-0.2h-88c-8.3,0-15,6.7-15,15v8c-0.1,1.8,1.3,3.4,3.2,3.5c1.8,0.1,3.4-1.3,3.5-3.2
	c0-0.1,0-0.2,0-0.4v-8c0-4.6,3.7-8.3,8.3-8.3h84.2v23.6c0,8.3,6.7,15,15,15h21.1v119.7c0,4.6-3.7,8.3-8.3,8.3h-10.9
	c-1.8-0.1-3.4,1.3-3.5,3.2s1.3,3.4,3.2,3.5c0.1,0,0.2,0,0.4,0h10.9c8.3,0,15-6.7,15-15l0,0L222.2,77L222.2,77z"/>
<g>
	<path class="st0" d="M87.8,84.7c-1.4-0.4-2.8-0.6-4.3-0.5l-3.6-0.1v18.4h4.2c0.9,0,1.6,0,2.2-0.1c0.5-0.1,1.1-0.2,1.6-0.4
		c0.5-0.2,1-0.5,1.4-0.8c1.8-1.6,2.8-4.2,2.8-8c0.1-2.1-0.3-4.1-1.2-6C90.2,86.1,89.1,85.2,87.8,84.7z"/>
	<path class="st0" d="M121.8,66.5H45.6c-5.4,0-9.8,4.1-9.8,9v33.9c0,5,4.4,9,9.8,9h76.1c5.4,0,9.8-4.1,9.8-9l0-33.9
		C131.6,70.5,127.2,66.5,121.8,66.5z M67.2,94.2c-1.7,1.4-4.2,2.1-7.6,2.1h-5v7.7c0.1,0.9-0.2,1.8-0.8,2.5c-1,1.1-2.8,1.2-3.9,0.1
		c0,0-0.1-0.1-0.1-0.1c-0.6-0.7-0.8-1.6-0.8-2.5V83.1c-0.1-0.9,0.2-1.9,0.8-2.6c0.8-0.6,1.7-0.9,2.6-0.8h7.1
		c1.6-0.1,3.2,0.1,4.8,0.5c1.1,0.3,2.1,0.8,2.9,1.5c0.8,0.7,1.4,1.6,1.8,2.6c0.4,1.1,0.6,2.3,0.6,3.5C69.9,90.3,69,92.6,67.2,94.2z
		 M97.2,97.7c-0.3,1.3-0.7,2.5-1.3,3.6c-0.6,1.1-1.4,2.1-2.3,2.9c-0.7,0.6-1.5,1.2-2.4,1.6c-0.9,0.4-1.8,0.7-2.8,0.8
		c-1.1,0.2-2.2,0.2-3.4,0.2h-7.2c-0.8,0-1.6-0.1-2.3-0.5c-0.5-0.3-0.9-0.7-1-1.3c-0.2-0.7-0.2-1.4-0.2-2.1V83.1
		c-0.3-1.6,0.7-3.1,2.3-3.4c0.3-0.1,0.7-0.1,1.1,0h7.2c1.6,0,3.2,0.1,4.8,0.5c1.3,0.4,2.6,1,3.6,1.9c2.8,2.4,4.2,6.1,4.2,11
		C97.6,94.7,97.5,96.2,97.2,97.7z M120.7,83.4c-0.6,0.4-1.3,0.7-2,0.6h-10.8v6.9h9.1c0.7-0.1,1.3,0.1,1.9,0.6
		c0.4,0.4,0.6,0.9,0.6,1.5c0,0.6-0.2,1.1-0.6,1.5c-0.5,0.4-1.2,0.6-1.9,0.6h-9.1v8.9c0.1,0.9-0.2,1.8-0.8,2.5
		c-1.1,1.1-2.8,1.1-3.9,0.1c0,0,0,0-0.1-0.1c-0.6-0.7-0.8-1.6-0.8-2.5V83.1c0-0.7,0.1-1.3,0.3-1.9c0.2-0.5,0.6-0.9,1.1-1.1
		c0.6-0.2,1.3-0.4,1.9-0.3h13c0.7-0.1,1.4,0.1,2,0.6c0.4,0.4,0.7,1,0.6,1.5C121.3,82.4,121.1,83,120.7,83.4z"/>
	<path class="st0" d="M58.3,83.9h-3.7v8.3h3.7c1.1,0,2.2-0.1,3.3-0.4c0.8-0.2,1.5-0.7,2-1.3c0.5-0.7,0.7-1.6,0.7-2.4
		c0-1.1-0.3-2.1-1.1-2.9C62.4,84.3,60.8,83.9,58.3,83.9z"/>
</g>
<rect x="132.8" y="250.7" class="st0" width="37" height="5.7"/>
<rect x="132.8" y="238.8" class="st0" width="37" height="8.1"/>
<path class="st0" d="M111.7,194.3c1.4-2.4,2.9-4.7,4.6-6.9c7.9-11.4,15.8-22.8,23.8-34.2c3.3-4.8,6.7-9.7,10.1-14.5
	c0.8-1.2,1.4-1.2,2.3,0c0.5,0.6,0.9,1.3,1.3,1.9l22.3,32c4.6,6.6,9.1,13.1,13.7,19.7c0.4,0.6,0.8,1.3,1.2,2c0.1,0.2-0.2,0.7-0.5,0.8
	c-0.8,0.1-1.5,0.1-2.3,0.1h-18.3v39.9h-37v-39.9h-17c-0.9,0-1.8,0-2.7,0c-0.3,0-0.7-0.1-1-0.1C111.8,194.9,111.6,194.6,111.7,194.3z
	"/>
</svg>
