<svg class="design_block_container_option_icon" id="Capa_1" data-name="Capa 1" xmlns="http://www.w3.org/2000/svg" viewBox="0 0 293 271"><defs></defs><title>icono_diseño20</title><g id="_3" data-name="3"><path class="cls-1" d="M197.61,208.82c-1.54-15.45-3.24-35.4-4.08-54.56-.77-17.61-.69-32,.24-42.75q.37-4.31.93-7.91c.22-1.45.47-2.82.75-4.11h0q-3.22-4.79-6.92-9.41l-.52-.64a28.42,28.42,0,0,0-40.35-3.62c-5.32,4.43-11.38,6.7-17.55,6-13.26-1.45-17.09-16-17.09-35A11.89,11.89,0,0,0,100,45c-13.7,1.32-25.7,6.18-34,12.85C33.48,84,35.68,140.65,70.87,184.5s90.06,58.26,122.55,32.18a56.24,56.24,0,0,0,4.57-4.09Q197.8,210.76,197.61,208.82Zm-124-65.25a12.61,12.61,0,1,1,12.61,12.61A12.61,12.61,0,0,1,73.64,143.58Zm-6.42-47a12.61,12.61,0,1,1,12.61,12.61A12.61,12.61,0,0,1,67.22,96.6ZM129,179.71a12.61,12.61,0,1,1-12.61-12.61A12.61,12.61,0,0,1,129,179.71Zm18.7,15.75a12.61,12.61,0,1,1,12.61,12.61A12.61,12.61,0,0,1,147.74,195.45Zm12.38-91.32c8.33-3.14,18.52,3.46,22.78,14.74s1,23-7.37,26.11-18.53-3.46-22.78-14.74S151.79,107.28,160.12,104.13Zm41.18,21.09c-.33,14.61.44,32,1.58,48.5Z"/><path class="cls-1" d="M202.71,105.69c-.23,1.54-.42,3.18-.59,4.9Z"/><path class="cls-1" d="M198,212.59c.12,1.25.25,2.46.37,3.64-1,.93-2.06,1.84-3.14,2.71C184,228,170,232.58,154.58,232.58a87.22,87.22,0,0,1-22.15-3C108.69,223.37,86,208,68.63,186.31s-27.51-47.14-28.46-71.66c-1-24.85,7.56-45.8,24-59C73.34,48.28,86,43.5,99.7,42.17a14.77,14.77,0,0,1,16.18,14.67c0,27.37,8.28,31.44,14.52,32.12,5.17.57,10.5-1.29,15.4-5.37a31.53,31.53,0,0,1,23.4-7.26,30.72,30.72,0,0,1,21,11.29l.53.65q2.93,3.65,5.6,7.48c-.34,1.17-.65,2.41-.93,3.74h0c-.27,1.29-.52,2.66-.75,4.11a135.88,135.88,0,0,0-8.42-11.72l-.51-.63a25,25,0,0,0-17.1-9.18,25.83,25.83,0,0,0-19.16,6c-6.13,5.11-12.95,7.42-19.71,6.67-7.31-.8-12.65-5.06-15.86-12.67-2.56-6.06-3.8-14.3-3.8-25.18a8.85,8.85,0,0,0-2.94-6.63,9,9,0,0,0-6.93-2.31c-12.64,1.22-24.18,5.56-32.48,12.23-31.19,25-28.79,80,5.35,122.56s87.3,56.77,118.5,31.74a53.57,53.57,0,0,0,6-5.61Q197.8,210.76,198,212.59Z"/><path class="cls-1" d="M206.26,207.33l-.46.62q-.23-2.35-.47-4.83l.28.18A2.88,2.88,0,0,1,206.26,207.33Z"/><path class="cls-1" d="M220.49,230a6.2,6.2,0,0,1-12.31,0c-.57-4.84-1.44-12.6-2.38-22q-.23-2.35-.47-4.83c-.85-8.89-1.72-19-2.44-29.35,0,0,0,0,0,0-1.14-16.55-1.9-33.9-1.58-48.5v-.06c.12-5.27.38-10.18.82-14.58.17-1.71.37-3.35.59-4.9,1.17-8.07,3.12-13.7,6.12-15.47h12.73C234.22,109,223.42,205.88,220.49,230Z"/><path class="cls-1" d="M229.62,64.58a15.21,15.21,0,1,1-30.43,0c0-21.65,25.23-36.57,25.23-36.57C220.39,49.66,229.62,56.18,229.62,64.58Z"/><path class="cls-1" d="M230,54.91c-2.33-5.75-5.22-12.91-2.72-26.37a2.88,2.88,0,0,0-4.3-3c-1.09.65-26.64,16-26.64,39.05a18.1,18.1,0,1,0,36.19,0C232.5,61.16,231.27,58.13,230,54.91Zm-15.57,22a12.35,12.35,0,0,1-12.33-12.33c0-13.84,11.61-25,18.62-30.43-.87,11,1.86,17.78,3.94,22.92,1.18,2.91,2.11,5.21,2.11,7.51A12.35,12.35,0,0,1,214.4,76.91Z"/></g></svg>